<svg width="50" height="50" viewBox="0 0 50 50" fill="none" xmlns="http://www.w3.org/2000/svg">
<path fill-rule="evenodd" clip-rule="evenodd" d="M43.75 3.125H6.25C5.4212 3.125 4.62634 3.45424 4.04029 4.04029C3.45424 4.62634 3.125 5.4212 3.125 6.25V43.75C3.125 44.5788 3.45424 45.3737 4.04029 45.9597C4.62634 46.5458 5.4212 46.875 6.25 46.875H43.75C44.5788 46.875 45.3737 46.5458 45.9597 45.9597C46.5458 45.3737 46.875 44.5788 46.875 43.75V6.25C46.875 5.4212 46.5458 4.62634 45.9597 4.04029C45.3737 3.45424 44.5788 3.125 43.75 3.125ZM6.25 0C4.5924 0 3.00269 0.65848 1.83058 1.83058C0.65848 3.00269 0 4.5924 0 6.25L0 43.75C0 45.4076 0.65848 46.9973 1.83058 48.1694C3.00269 49.3415 4.5924 50 6.25 50H43.75C45.4076 50 46.9973 49.3415 48.1694 48.1694C49.3415 46.9973 50 45.4076 50 43.75V6.25C50 4.5924 49.3415 3.00269 48.1694 1.83058C46.9973 0.65848 45.4076 0 43.75 0L6.25 0Z" fill="white"/>
<path fill-rule="evenodd" clip-rule="evenodd" d="M37.0438 12.9562C37.1893 13.1014 37.3047 13.2738 37.3835 13.4636C37.4623 13.6535 37.5028 13.857 37.5028 14.0625C37.5028 14.268 37.4623 14.4715 37.3835 14.6613C37.3047 14.8512 37.1893 15.0236 37.0438 15.1687L15.1688 37.0437C14.8754 37.3371 14.4774 37.502 14.0625 37.502C13.6476 37.502 13.2497 37.3371 12.9563 37.0437C12.6629 36.7503 12.498 36.3524 12.498 35.9375C12.498 35.5226 12.6629 35.1246 12.9563 34.8312L34.8313 12.9562C34.9764 12.8107 35.1488 12.6953 35.3387 12.6165C35.5285 12.5377 35.732 12.4972 35.9375 12.4972C36.143 12.4972 36.3465 12.5377 36.5364 12.6165C36.7262 12.6953 36.8986 12.8107 37.0438 12.9562Z" fill="white"/>
<path fill-rule="evenodd" clip-rule="evenodd" d="M12.9562 12.9562C12.8107 13.1014 12.6953 13.2738 12.6165 13.4636C12.5377 13.6535 12.4972 13.857 12.4972 14.0625C12.4972 14.268 12.5377 14.4715 12.6165 14.6613C12.6953 14.8512 12.8107 15.0236 12.9562 15.1687L34.8312 37.0437C35.1246 37.3371 35.5226 37.502 35.9375 37.502C36.3524 37.502 36.7503 37.3371 37.0437 37.0437C37.3371 36.7503 37.502 36.3524 37.502 35.9375C37.502 35.5226 37.3371 35.1246 37.0437 34.8312L15.1687 12.9562C15.0236 12.8107 14.8512 12.6953 14.6613 12.6165C14.4715 12.5377 14.268 12.4972 14.0625 12.4972C13.857 12.4972 13.6535 12.5377 13.4636 12.6165C13.2738 12.6953 13.1014 12.8107 12.9562 12.9562Z" fill="white"/>
</svg>
