<svg width="112" height="24" viewBox="0 0 112 24" fill="none" xmlns="http://www.w3.org/2000/svg">
<path d="M61 2H51C48.2386 2 46 4.23858 46 7V17C46 19.7614 48.2386 22 51 22H61C63.7614 22 66 19.7614 66 17V7C66 4.23858 63.7614 2 61 2Z" stroke="black" stroke-width="2" stroke-linecap="round" stroke-linejoin="round"/>
<path d="M60 11.3698C60.1234 12.2021 59.9813 13.052 59.5938 13.7988C59.2063 14.5456 58.5932 15.1512 57.8416 15.5295C57.0901 15.9077 56.2385 16.0394 55.4078 15.9057C54.5771 15.7721 53.8098 15.3799 53.2149 14.785C52.6199 14.1901 52.2277 13.4227 52.0941 12.592C51.9604 11.7614 52.0921 10.9097 52.4703 10.1582C52.8486 9.40667 53.4542 8.79355 54.201 8.40605C54.9478 8.01856 55.7978 7.8764 56.63 7.99981C57.4789 8.1257 58.2649 8.52128 58.8717 9.12812C59.4785 9.73496 59.8741 10.5209 60 11.3698Z" stroke="black" stroke-width="2" stroke-linecap="round" stroke-linejoin="round"/>
<path d="M61.5 6.5H61.51" stroke="black" stroke-width="2" stroke-linecap="round" stroke-linejoin="round"/>
<path d="M111 2.9998C110.042 3.67528 108.982 4.19191 107.86 4.5298C107.258 3.83731 106.457 3.34649 105.567 3.12373C104.677 2.90096 103.739 2.957 102.882 3.28426C102.025 3.61151 101.288 4.1942 100.773 4.95352C100.258 5.71283 99.9877 6.61214 100 7.5298V8.5298C98.2426 8.57537 96.5013 8.18561 94.931 7.39525C93.3607 6.60488 92.0103 5.43844 91 3.9998C91 3.9998 87 12.9998 96 16.9998C93.9405 18.3978 91.4872 19.0987 89 18.9998C98 23.9998 109 18.9998 109 7.4998C108.999 7.22126 108.972 6.9434 108.92 6.6698C109.941 5.6633 110.661 4.39251 111 2.9998V2.9998Z" stroke="black" stroke-width="2" stroke-linecap="round" stroke-linejoin="round"/>
<path d="M18 2H15C13.6739 2 12.4021 2.52678 11.4645 3.46447C10.5268 4.40215 10 5.67392 10 7V10H7V14H10V22H14V14H17L18 10H14V7C14 6.73478 14.1054 6.48043 14.2929 6.29289C14.4804 6.10536 14.7348 6 15 6H18V2Z" stroke="black" stroke-width="2" stroke-linecap="round" stroke-linejoin="round"/>
</svg>
